# xmcd
#
# Track frame offsets:
#	150
#	15414
#	30524
#	44465
#	63684
#	84521
#	103134
#	121402
#	135762
#	153064
#	172266
#	186512
#	204876
#	220809
#	234101
#	252134
#	268844
#
# Disc length: 3819 seconds
#
# Revision: 1
# Processed by: cddbd v1.5.2PL0 Copyright (c) Steve Scherf et al.
# Submitted via: audiograbber 1.83.01
#
DISCID=e10ee911
DTITLE=Various Artist - All Star Karaoke Young Gal Country Vol. 1 (ASK-1552)
DYEAR=1900
DGENRE=
TTITLE0=Carrie Underwood   - Before He Cheats  
TTITLE1=Carrie Underwood   - Flat On The Floor  
TTITLE2=Carrie Underwood   - Get Out Of This Town  
TTITLE3=Carrie Underwood   - I Told You So  
TTITLE4=Carrie Underwood   - Just A Dream  
TTITLE5=Kellie Pickler   - Didn't You Know How Much I Loved You  
TTITLE6=Kellie Pickler  -  I Wonder  
TTITLE7=Kellie Pickler   - My Angel  
TTITLE8=Kellie Pickler   - Red High Heels  
TTITLE9=Kellie Pickler   - Small Town Girl  
TTITLE10=Kellie Pickler   - Things That Never Cross A Man's Mind  
TTITLE11=Taylor Swift   - Cold As You  
TTITLE12=Taylor Swift   - Our Song  
TTITLE13=Taylor Swift   - Picture To Burn  
TTITLE14=Taylor Swift   - Stay Beautiful  
TTITLE15=Taylor Swift   - Teardrops On My Guitar  
TTITLE16=Taylor Swift   - Tim McGraw  
EXTD=
EXTT0=
EXTT1=
EXTT2=
EXTT3=
EXTT4=
EXTT5=
EXTT6=
EXTT7=
EXTT8=
EXTT9=
EXTT10=
EXTT11=
EXTT12=
EXTT13=
EXTT14=
EXTT15=
EXTT16=
PLAYORDER=
